# xmcd CD database file
#
# Track frame offsets:
#	150
#	16459
#	33832
#	52526
#	70379
#	89372
#	110644
#	128949
#	146047
#	164161
#	187041
#	205102
#
# Disc length: 2958 seconds
#
# Revision: 0
# Processed by: cddbd v1.5.1PL2 Copyright (c) Steve Scherf et al.
# Submitted via: CDex 1.40Beta8
#
DISCID=ac0b8c0c
DTITLE=Paulette Carlson - It's About Time
DYEAR=2005
DGENRE=Country
TTITLE0=I Know A Good Thing When I Had It
TTITLE1=I Wish You Wouldn't Stand Quite So Close
TTITLE2=That Old Glass Case
TTITLE3=Cowgirl Angel
TTITLE4=Only In Your Dreams
TTITLE5=My Love Is In America
TTITLE6=He's Funny That Way
TTITLE7=She Rides For  The Brand
TTITLE8=Twenty Years Ago
TTITLE9=Thank You Vets
TTITLE10=Rejoice For The Moment
TTITLE11=It's About Time Now
EXTD=YEAR: 2005 ID3G: 2
EXTT0=
EXTT1=
EXTT2=
EXTT3=
EXTT4=
EXTT5=
EXTT6=
EXTT7=
EXTT8=
EXTT9=
EXTT10=
EXTT11=
PLAYORDER=
